<svg width="16" height="16" viewBox="0 0 16 16" fill="none" xmlns="http://www.w3.org/2000/svg">
<g clip-path="url(#clip0_30255_2150)">
<path d="M12 2.66671H11.3333V2.00004C11.3333 1.82323 11.2631 1.65366 11.1381 1.52864C11.013 1.40361 10.8435 1.33337 10.6667 1.33337C10.4899 1.33337 10.3203 1.40361 10.1953 1.52864C10.0702 1.65366 10 1.82323 10 2.00004V2.66671H6V2.00004C6 1.82323 5.92976 1.65366 5.80474 1.52864C5.67971 1.40361 5.51014 1.33337 5.33333 1.33337C5.15652 1.33337 4.98695 1.40361 4.86193 1.52864C4.7369 1.65366 4.66667 1.82323 4.66667 2.00004V2.66671H4C3.46957 2.66671 2.96086 2.87742 2.58579 3.25249C2.21071 3.62757 2 4.13627 2 4.66671V12.6667C2 13.1971 2.21071 13.7058 2.58579 14.0809C2.96086 14.456 3.46957 14.6667 4 14.6667H12C12.5304 14.6667 13.0391 14.456 13.4142 14.0809C13.7893 13.7058 14 13.1971 14 12.6667V4.66671C14 4.13627 13.7893 3.62757 13.4142 3.25249C13.0391 2.87742 12.5304 2.66671 12 2.66671ZM5.33333 11.3334C5.20148 11.3334 5.07259 11.2943 4.96295 11.221C4.85332 11.1478 4.76787 11.0436 4.71741 10.9218C4.66696 10.8 4.65375 10.666 4.67948 10.5366C4.7052 10.4073 4.76869 10.2885 4.86193 10.1953C4.95516 10.1021 5.07395 10.0386 5.20327 10.0129C5.33259 9.98713 5.46664 10.0003 5.58846 10.0508C5.71027 10.1012 5.81439 10.1867 5.88765 10.2963C5.9609 10.406 6 10.5349 6 10.6667C6 10.8435 5.92976 11.0131 5.80474 11.1381C5.67971 11.2631 5.51014 11.3334 5.33333 11.3334ZM10.6667 11.3334H8C7.82319 11.3334 7.65362 11.2631 7.5286 11.1381C7.40357 11.0131 7.33333 10.8435 7.33333 10.6667C7.33333 10.4899 7.40357 10.3203 7.5286 10.1953C7.65362 10.0703 7.82319 10 8 10H10.6667C10.8435 10 11.013 10.0703 11.1381 10.1953C11.2631 10.3203 11.3333 10.4899 11.3333 10.6667C11.3333 10.8435 11.2631 11.0131 11.1381 11.1381C11.013 11.2631 10.8435 11.3334 10.6667 11.3334ZM12.6667 7.33337H3.33333V4.66671C3.33333 4.4899 3.40357 4.32033 3.5286 4.1953C3.65362 4.07028 3.82319 4.00004 4 4.00004H4.66667V4.66671C4.66667 4.84352 4.7369 5.01309 4.86193 5.13811C4.98695 5.26314 5.15652 5.33337 5.33333 5.33337C5.51014 5.33337 5.67971 5.26314 5.80474 5.13811C5.92976 5.01309 6 4.84352 6 4.66671V4.00004H10V4.66671C10 4.84352 10.0702 5.01309 10.1953 5.13811C10.3203 5.26314 10.4899 5.33337 10.6667 5.33337C10.8435 5.33337 11.013 5.26314 11.1381 5.13811C11.2631 5.01309 11.3333 4.84352 11.3333 4.66671V4.00004H12C12.1768 4.00004 12.3464 4.07028 12.4714 4.1953C12.5964 4.32033 12.6667 4.4899 12.6667 4.66671V7.33337Z" fill="#434E58"/>
</g>
<defs>
<clipPath id="clip0_30255_2150">
<rect width="16" height="16" fill="white"/>
</clipPath>
</defs>
</svg>
