<svg width="25" height="24" viewBox="0 0 25 24" fill="none" xmlns="http://www.w3.org/2000/svg">
<g clip-path="url(#clip0_104_1469)">
<path d="M24.3068 10.0917C24.4135 10.0917 24.5 10.1782 24.5 10.2848V12.313C24.5 13.0721 24.4295 13.8143 24.2942 14.5343C23.2481 20.1269 18.3211 24.3534 12.4154 24.3127C5.7887 24.267 0.485358 18.9127 0.50003 12.2859C0.514608 5.67108 5.8817 0.312988 12.5 0.312988C15.7425 0.312988 18.6844 1.59933 20.8444 3.68883C20.9224 3.76425 20.9244 3.88857 20.8477 3.96525L17.9784 6.83452C17.9045 6.90839 17.7852 6.91032 17.7095 6.83827C16.3538 5.54785 14.5196 4.75561 12.5 4.75561C8.32947 4.75561 4.97111 8.09011 4.9428 12.2605C4.91434 16.4583 8.30884 19.8703 12.5 19.8703C15.9005 19.8703 18.7767 17.6239 19.7251 14.5343H12.6932C12.5865 14.5343 12.5 14.4478 12.5 14.3411V10.2848C12.5 10.1781 12.5865 10.0916 12.6932 10.0916H24.3068V10.0917Z" fill="#2196F3"/>
<path d="M24.3064 10.0918H22.8577C22.9644 10.0918 23.0509 10.1783 23.0509 10.285V12.3131C23.0509 13.0722 22.9804 13.8144 22.8451 14.5344C21.8471 19.8698 17.3169 23.9618 11.7744 24.2915C11.9865 24.304 12.1999 24.3113 12.4149 24.3128C18.3207 24.3535 23.2477 20.127 24.2938 14.5344C24.429 13.8144 24.4995 13.0722 24.4995 12.3131V10.2849C24.4995 10.1783 24.413 10.0918 24.3064 10.0918Z" fill="#1E88E5"/>
<path d="M5.63565 9.14808L1.99121 6.51483C4.0358 2.81682 7.97574 0.312988 12.5 0.312988C15.7425 0.312988 18.6845 1.59933 20.8444 3.68883C20.9224 3.76425 20.9244 3.88857 20.8477 3.96525L17.9784 6.83452C17.9047 6.90825 17.7854 6.91055 17.7099 6.83864C16.3542 5.54799 14.5198 4.75566 12.5 4.75566C9.45634 4.75566 6.83274 6.55491 5.63565 9.14808Z" fill="#F44336"/>
<path d="M4.58301 8.38812L5.63512 9.14829C6.72777 6.78138 9.00909 5.07672 11.7133 4.79711C11.7336 4.79491 11.7532 4.79223 11.7739 4.79027C11.5359 4.76767 11.2948 4.75586 11.0508 4.75586C8.30127 4.75586 5.90502 6.20538 4.58301 8.38812Z" fill="#E53935"/>
<path d="M19.3956 3.68883C19.4736 3.76425 19.4756 3.88857 19.3989 3.9653L17.07 6.29419C17.2931 6.46388 17.5067 6.64538 17.7093 6.83832C17.785 6.91036 17.9044 6.90844 17.9783 6.83457L20.8475 3.9653C20.9243 3.88857 20.9222 3.7643 20.8442 3.68883C18.6843 1.59933 15.7423 0.312988 12.4998 0.312988C12.2565 0.312988 12.0151 0.321098 11.7754 0.335395C14.7304 0.51141 17.3976 1.75608 19.3956 3.68883Z" fill="#E53935"/>
<path d="M21.3027 20.4684C19.1113 22.8331 15.9783 24.3132 12.5 24.3132C7.80187 24.3132 3.73443 21.6133 1.76465 17.6801L5.48535 15.1304C6.60187 17.9085 9.32202 19.8705 12.5 19.8705C14.4943 19.8705 16.3081 19.0979 17.6583 17.8356L21.3027 20.4684Z" fill="#4CAF50"/>
<path d="M5.48485 15.1304L4.3877 15.8822C5.66199 18.2561 8.16788 19.8705 11.0507 19.8705C11.2945 19.8705 11.5355 19.8585 11.7734 19.836C8.91174 19.5632 6.51526 17.6944 5.48485 15.1304Z" fill="#43A047"/>
<path d="M12.4999 24.3129C15.9782 24.3129 19.1112 22.8329 21.3026 20.4681L20.41 19.8232C18.3524 22.384 15.2656 24.0828 11.7773 24.2911C12.0164 24.3053 12.2573 24.3129 12.4999 24.3129Z" fill="#43A047"/>
<path d="M4.94267 12.3128C4.94267 13.3085 5.13533 14.2594 5.48544 15.13L1.76469 17.6797C0.955391 16.0649 0.5 14.242 0.5 12.3128C0.5 10.2098 1.04084 8.23327 1.99119 6.51465L5.63562 9.1479C5.19088 10.1103 4.94267 11.1828 4.94267 12.3128Z" fill="#FFC107"/>
<path d="M4.38846 15.8819L5.48562 15.13C5.13551 14.2594 4.94285 13.3085 4.94285 12.3128C4.94285 11.1828 5.19105 10.1103 5.6358 9.14787L4.58369 8.3877C3.90049 9.51574 3.50398 10.8395 3.49432 12.2604C3.48541 13.5707 3.81012 14.8045 4.38846 15.8819Z" fill="#FFB300"/>
</g>
<defs>
<clipPath id="clip0_104_1469">
<rect width="24" height="24" fill="white" transform="translate(0.5 0.312988)"/>
</clipPath>
</defs>
</svg>
