<svg xmlns="http://www.w3.org/2000/svg" width="16" height="16" fill="none"><path d="M6.24 3.69c0 1.707-.007 3.14-.016 3.184-.022.112-.151.179-.304.159-.217-.029-.199.181-.207-2.447-.006-2.096-.012-2.346-.048-2.346-.1 0-.617.087-.67.112a.184.184 0 0 1-.112.014c-.03-.007-.057-.005-.062.005-.004.01-.206.047-.448.082-.242.034-.446.07-.453.08-.007.01-.121.033-.253.05-.423.057-.414.054-.414.138 0 .041.01.079.022.083.012.005.048.201.082.436.033.235.073.453.088.485a.188.188 0 0 1 .014.113c-.008.031-.006.055.004.055.011 0 .047.201.082.447s.072.453.081.46c.01.007.052.253.094.547.042.293.084.539.093.546.009.008.051.254.093.547.042.293.085.539.094.547.009.007.052.253.094.546.042.294.084.54.093.547.009.007.043.205.076.44.034.235.073.453.089.485a.184.184 0 0 1 .014.112c-.007.03-.005.057.005.062.01.004.047.206.082.448.034.242.07.446.08.453.009.007.051.253.093.547.042.293.084.539.094.546.009.008.051.254.093.547.041.293.083.539.093.547.009.007.051.253.093.546.042.294.085.54.095.547a.55.55 0 0 1 .037.173c.032.27-.006.251.396.195a2.71 2.71 0 0 0 .411-.079.186.186 0 0 1 .112-.015c.03.007.058.005.062-.005.004-.011.206-.047.448-.081.242-.033.452-.07.467-.081.014-.011.26-.054.546-.094.286-.04.526-.082.534-.092.007-.01.253-.052.546-.093.294-.041.54-.083.547-.094.007-.01.223-.049.48-.086l.467-.068-2.08-.004c-2.021-.004-2.082-.005-2.147-.056a.263.263 0 0 0-.097-.053c-.017 0-.05-.049-.073-.108-.039-.095-.043-.366-.043-2.538V7.75l.071-.075c.117-.122.259-.104.425.054.031.029.037.41.037 2.353V12.4h9.28V2.59l-.908-.008c-.565-.006-.915-.019-.926-.035a.513.513 0 0 0-.121-.079c-.126-.064-.195-.157-.23-.311-.015-.064-.027-.444-.028-.844V.587H6.24V3.69m7.6-2.299c0 .43.009.607.032.63.023.023.207.032.66.032h.628l-.493-.473-.66-.631-.167-.157v.599m.589 2.154c.126.126.1.308-.055.388-.068.035-.496.04-3.465.04-2.569 0-3.403-.007-3.456-.032a.293.293 0 0 1-.146-.221c0-.073.08-.202.141-.226.033-.014 1.562-.025 3.481-.026l3.422-.001.078.078m-11.641.428a2.562 2.562 0 0 1-.346.122 1.837 1.837 0 0 0-.269.091 1.448 1.448 0 0 1-.24.081 1.616 1.616 0 0 0-.24.079 1.846 1.846 0 0 1-.266.094 2.055 2.055 0 0 0-.267.092 1.966 1.966 0 0 1-.267.096 1.09 1.09 0 0 0-.249.097c-.004.012-.024.022-.043.022-.042 0-.076.073-.039.085.014.004.05.098.081.207.031.11.072.224.09.253.019.03.061.145.093.255.033.11.069.212.08.226.012.015.054.135.095.267.04.132.082.246.091.253.02.016.161.455.161.502 0 .017.01.032.023.032.012 0 .044.075.071.166.026.092.062.191.08.221.018.029.065.161.105.293.041.132.083.252.095.266.011.015.054.135.095.267s.082.246.091.253c.017.013.114.315.149.46.009.041.026.074.036.074.01 0 .054.111.096.246.043.136.088.254.099.262a.926.926 0 0 1 .078.213c.03.108.07.221.089.251.018.03.06.144.094.254.034.11.07.206.08.214.01.007.025.043.033.08.039.175.129.441.153.449.015.004.027.022.027.038 0 .046.141.484.161.499.02.016.159.454.159.502 0 .017.01.032.022.032.013 0 .056.111.096.246.041.136.085.261.099.278.014.017.048.111.076.209.028.098.062.192.075.209.014.017.058.139.099.271.042.132.083.246.093.253.021.015.16.453.16.502 0 .017.01.032.022.032.013 0 .05.093.083.206.033.114.076.232.095.262.019.03.055.132.081.226.026.095.074.232.105.306.032.073.081.208.109.3.028.091.061.166.073.166.012 0 .013.014.002.032-.013.02-.005.025.023.015a2.33 2.33 0 0 1 .151-.049c.06-.018.109-.043.109-.055 0-.013.015-.023.033-.023.046.001.484-.141.5-.161.016-.019.454-.159.498-.159.017 0 .035-.012.04-.026.005-.015.088-.05.186-.077.097-.028.217-.07.266-.093a2.75 2.75 0 0 1 .277-.099c.103-.031.199-.066.213-.077.015-.011.135-.055.267-.097a1.67 1.67 0 0 0 .253-.092c.008-.009.122-.05.254-.091.132-.042.246-.085.253-.095a.738.738 0 0 1 .187-.067 2.3 2.3 0 0 0 .28-.096 3.05 3.05 0 0 1 .293-.105c.103-.031.226-.075.274-.097.048-.022.174-.069.28-.104.106-.035.163-.058.126-.051-.037.007-.247.038-.467.069-.22.03-.424.065-.453.078-.046.019-.606.11-.933.151a.711.711 0 0 0-.16.036c-.046.019-.61.11-.934.151a.739.739 0 0 0-.16.036c-.085.036-.593.111-.84.124-.184.01-.243.004-.318-.036-.149-.079-.186-.155-.231-.476a2.546 2.546 0 0 0-.064-.346 5.708 5.708 0 0 1-.093-.546 5.691 5.691 0 0 0-.093-.547 5.691 5.691 0 0 1-.093-.547 5.915 5.915 0 0 0-.094-.546 6.654 6.654 0 0 1-.093-.547 5.824 5.824 0 0 0-.093-.547 5.915 5.915 0 0 1-.094-.546 7.707 7.707 0 0 0-.086-.534c-.019-.044-.121-.637-.248-1.44a7.257 7.257 0 0 0-.105-.573 5.897 5.897 0 0 1-.094-.547 5.708 5.708 0 0 0-.093-.546 6.04 6.04 0 0 1-.094-.547 5.824 5.824 0 0 0-.093-.547 4.505 4.505 0 0 1-.084-.48c-.033-.234-.07-.43-.082-.435-.012-.005-.015-.02-.007-.034.024-.038-.021-.028-.133.029m11.603 1.199a.24.24 0 0 1 .038.377l-.078.078H7.47l-.075-.064c-.145-.125-.068-.395.122-.424.038-.007 1.588-.01 3.443-.009 2.895.003 3.382.009 3.431.042m.027 1.671c.062.046.077.079.083.187.007.113-.002.141-.062.198l-.07.065H7.435l-.064-.074c-.112-.131-.069-.339.085-.407.062-.028.764-.034 3.482-.03l3.405.005.075.056m-.072 1.645c.171.059.214.263.083.394l-.078.078h-3.439c-3.405 0-3.439-.001-3.506-.054-.145-.113-.105-.373.065-.422.14-.04 6.758-.036 6.875.004m.075 1.699c.108.1.11.269.005.374-.052.052-.103.052-3.517.052H7.445l-.072-.085c-.058-.068-.069-.103-.057-.177a.36.36 0 0 1 .074-.155l.059-.063h3.457c3.436 0 3.458.001 3.515.054" fill="#434e58" fill-rule="evenodd"/></svg>