<svg width="24" height="25" viewBox="0 0 24 25" fill="none" xmlns="http://www.w3.org/2000/svg">
<g id="Iconly/Light-Outline/Activity">
<g id="Activity">
<path id="Fill 1" fill-rule="evenodd" clip-rule="evenodd" d="M7.21653 16.9267C7.05653 16.9267 6.89553 16.8757 6.75953 16.7717C6.43153 16.5187 6.36953 16.0477 6.62253 15.7197L9.61553 11.8297C9.73753 11.6707 9.91853 11.5677 10.1165 11.5427C10.3185 11.5167 10.5165 11.5727 10.6735 11.6977L13.4935 13.9127L15.9605 10.7297C16.2145 10.4007 16.6845 10.3397 17.0125 10.5957C17.3405 10.8497 17.4005 11.3207 17.1465 11.6477L14.2165 15.4277C14.0945 15.5857 13.9145 15.6887 13.7165 15.7127C13.5165 15.7397 13.3185 15.6817 13.1605 15.5587L10.3425 13.3447L7.81153 16.6337C7.66353 16.8257 7.44153 16.9267 7.21653 16.9267Z" fill="#111111"/>
<g id="Group 5">
<mask id="mask0_104_1009" style="mask-type:alpha" maskUnits="userSpaceOnUse" x="17" y="2" width="6" height="7">
<path id="Clip 4" fill-rule="evenodd" clip-rule="evenodd" d="M17.2949 2.92383H22.6389V8.26873H17.2949V2.92383Z" fill="white"/>
</mask>
<g mask="url(#mask0_104_1009)">
<path id="Fill 3" fill-rule="evenodd" clip-rule="evenodd" d="M19.9669 4.42383C19.3209 4.42383 18.7949 4.94883 18.7949 5.59583C18.7949 6.24183 19.3209 6.76883 19.9669 6.76883C20.6129 6.76883 21.1389 6.24183 21.1389 5.59583C21.1389 4.94883 20.6129 4.42383 19.9669 4.42383ZM19.9669 8.26883C18.4939 8.26883 17.2949 7.06983 17.2949 5.59583C17.2949 4.12183 18.4939 2.92383 19.9669 2.92383C21.4409 2.92383 22.6389 4.12183 22.6389 5.59583C22.6389 7.06983 21.4409 8.26883 19.9669 8.26883Z" fill="#111111"/>
</g>
</g>
<g id="Group 8">
<mask id="mask1_104_1009" style="mask-type:alpha" maskUnits="userSpaceOnUse" x="2" y="3" width="20" height="21">
<path id="Clip 7" fill-rule="evenodd" clip-rule="evenodd" d="M2 3.76587H21.8619V23.6269H2V3.76587Z" fill="white"/>
</mask>
<g mask="url(#mask1_104_1009)">
<path id="Fill 6" fill-rule="evenodd" clip-rule="evenodd" d="M16.233 23.6269H7.629C4.262 23.6269 2 21.2619 2 17.7419V9.65987C2 6.13487 4.262 3.76587 7.629 3.76587H14.897C15.311 3.76587 15.647 4.10187 15.647 4.51587C15.647 4.92987 15.311 5.26587 14.897 5.26587H7.629C5.121 5.26587 3.5 6.98987 3.5 9.65987V17.7419C3.5 20.4469 5.082 22.1269 7.629 22.1269H16.233C18.741 22.1269 20.362 20.4059 20.362 17.7419V10.7029C20.362 10.2889 20.698 9.95287 21.112 9.95287C21.526 9.95287 21.862 10.2889 21.862 10.7029V17.7419C21.862 21.2619 19.6 23.6269 16.233 23.6269Z" fill="#111111"/>
</g>
</g>
</g>
</g>
</svg>
